<svg width="40" height="40" viewBox="0 0 40 40" fill="none" xmlns="http://www.w3.org/2000/svg">
<g clip-path="url(#clip0)">
<path d="M35.6936 18.3759L19.9988 33.8461L4.30407 18.3734C3.32016 17.397 1.72204 17.397 0.738129 18.3734C-0.245779 19.3499 -0.245779 20.9306 0.738129 21.9045L18.216 39.1327C19.1623 40.069 20.8331 40.074 21.7844 39.1327L39.2623 21.902C40.2462 20.9281 40.2462 19.3449 39.2623 18.3709C38.2757 17.3997 36.6775 17.3997 35.6936 18.3759Z" fill="black"/>
<path d="M18.2158 21.6549C19.1621 22.5912 20.8329 22.5962 21.7842 21.6549L39.2621 4.42672C40.246 3.45029 40.246 1.8696 39.2621 0.895656C38.2782 -0.0807787 36.68 -0.0807787 35.6961 0.895656L19.9989 16.3658L4.30387 0.895656C3.31996 -0.0807787 1.72184 -0.0807787 0.737931 0.895656C-0.245977 1.87209 -0.245977 3.45278 0.737931 4.42672L18.2158 21.6549Z" fill="black"/>
</g>
<defs>
<clipPath id="clip0">
<rect width="40" height="40" fill="white"/>
</clipPath>
</defs>
</svg>
