<svg width="55" height="55" viewBox="0 0 55 55" fill="none" xmlns="http://www.w3.org/2000/svg">
<g clip-path="url(#clip0)">
<path d="M6.21033 36.254V42.396C6.21033 45.8792 9.05197 48.7209 12.5352 48.7209H18.6771L23.0311 53.0748C24.2228 54.2665 25.827 54.9312 27.5 54.9312C29.173 54.9312 30.7772 54.2665 31.9689 53.0748L36.3229 48.7209H42.4648C45.948 48.7209 48.7897 45.8792 48.7897 42.396V36.254L53.1436 31.9001C54.3353 30.7084 55 29.1042 55 27.4312C55 25.7582 54.3353 24.154 53.1436 22.9627L48.7897 18.6083V12.4668C48.7897 8.98315 45.948 6.14151 42.4648 6.14151H36.3229L31.9689 1.78757C29.5855 -0.595856 25.4145 -0.595856 23.0311 1.78757L18.6771 6.14151H12.5352C9.05197 6.14151 6.21033 8.98315 6.21033 12.4668V18.6083L1.85638 22.9627C0.664673 24.154 0 25.7582 0 27.4312C0 29.1042 0.664673 30.7084 1.85638 31.9001L6.21033 36.254ZM27.5 13.6812C28.4395 13.6812 29.2188 14.4604 29.2188 15.3999V39.4624C29.2188 40.402 28.4395 41.1812 27.5 41.1812C19.5252 41.1812 13.75 35.4064 13.75 27.4312C13.75 19.4564 19.5252 13.6812 27.5 13.6812Z" fill="black"/>
</g>
<defs>
<clipPath id="clip0">
<rect width="55" height="55" fill="white"/>
</clipPath>
</defs>
</svg>
